# xmcd
#
# Track frame offsets:
#	150
#	55077
#	83925
#
# Disc length: 2399 seconds
#
# Revision: 1
# Processed by: cddbd v1.5.2PL0 Copyright (c) Steve Scherf et al.
# Submitted via: audiograbber 1.83.01
#
DISCID=1c095d03
DTITLE=Grateful Dead - 69-02-21 Dream Bowl, Napa CA
DYEAR=1900
DGENRE=
TTITLE0=Good Morning Little Schoolgirl
TTITLE1=Doin' That Rag
TTITLE2=Dark Star
EXTD=
EXTT0=
EXTT1=
EXTT2=
PLAYORDER=
